<svg xmlns="http://www.w3.org/2000/svg" width="98" height="31" viewBox="0 0 98 31">
    <defs>
        <linearGradient id="a" x1="100%" x2="0%" y1="100%" y2="0%">
            <stop offset="0%" stop-color="#5E2563"/>
            <stop offset="100%" stop-color="#65799B"/>
        </linearGradient>
    </defs>
    <path fill="url(#a)" fill-rule="evenodd" d="M5.277 9.615v9.843c0 .323.033.63.097.922.065.292.168.556.308.793.14.238.329.427.566.567.238.14.54.21.907.21.237 0 .502-.016.793-.048.292-.032.62-.135.988-.308.086-.043.172-.08.259-.113a.733.733 0 0 1 .259-.049c.172 0 .302.07.388.21.086.141.162.287.227.438.064.194.01.345-.162.453-.67.432-1.284.712-1.846.842a8.367 8.367 0 0 1-1.877.194 3.687 3.687 0 0 1-2.655-1.1c-.367-.367-.658-.837-.874-1.409-.216-.572-.324-1.236-.324-1.991V9.551l-1.878.064a.376.376 0 0 1-.34-.178A.738.738 0 0 1 0 9.033c0-.173.038-.33.113-.47a.541.541 0 0 1 .34-.275c.605-.108 1.09-.28 1.457-.518.367-.237.67-.513.907-.826.237-.312.431-.669.582-1.068.151-.4.303-.815.454-1.246.064-.173.156-.286.275-.34.119-.054.264-.081.437-.081.13 0 .275.032.437.097a.355.355 0 0 1 .243.356l-.227 3.69 3.788-.226c.194-.021.324.033.389.162.064.13.097.28.097.453 0 .238-.038.459-.114.664-.075.205-.167.308-.275.308l-3.626-.098zm10.846-5.73a2.88 2.88 0 0 1-.729-.097 1.834 1.834 0 0 1-.68-.34 2.069 2.069 0 0 1-.517-.615c-.14-.248-.21-.556-.21-.923 0-.173.048-.372.145-.599.097-.226.248-.437.453-.631.205-.194.459-.356.76-.486.303-.13.66-.194 1.07-.194a1.863 1.863 0 0 1 1.667 1.085c.118.248.178.555.178.922 0 .454-.184.88-.55 1.28-.368.398-.896.598-1.587.598zm1.813 4.533V20.51c0 .27.048.507.146.712.097.205.264.367.501.486.238.118.583.178 1.036.178.195 0 .362.016.502.048.14.033.221.21.243.534a.798.798 0 0 1-.13.454.436.436 0 0 1-.388.194 35.982 35.982 0 0 0-1.732-.081 81.857 81.857 0 0 0-3.318 0c-.519.01-1.09.038-1.716.081a.436.436 0 0 1-.389-.194.798.798 0 0 1-.13-.454c.044-.323.13-.501.26-.534.13-.032.302-.048.518-.048.453 0 .793-.06 1.02-.178.226-.12.388-.281.485-.486.097-.205.146-.442.146-.712v-9.065c0-.27-.049-.508-.146-.713a1.058 1.058 0 0 0-.486-.485c-.226-.119-.566-.178-1.02-.178-.194 0-.372-.027-.534-.081-.161-.054-.242-.243-.242-.567 0-.13.043-.248.13-.356a.694.694 0 0 1 .388-.227 19.248 19.248 0 0 0 1.813-.34 18.975 18.975 0 0 0 1.894-.566 2.56 2.56 0 0 1 .534-.13.592.592 0 0 1 .437.098c.119.086.178.259.178.518zm9.583 2.04h.097c.324-.303.637-.6.939-.891a6.628 6.628 0 0 1 1.004-.793 5.168 5.168 0 0 1 1.278-.583c.486-.151 1.074-.227 1.765-.227 1.058 0 1.959.222 2.703.664a4.142 4.142 0 0 1 1.668 1.83h.064c.324-.303.659-.6 1.004-.891a7.459 7.459 0 0 1 1.15-.793 6.64 6.64 0 0 1 1.408-.583c.518-.151 1.122-.227 1.813-.227 1.489 0 2.66.443 3.512 1.328.853.885 1.28 2.05 1.28 3.496v7.722c0 .27.048.507.145.712.097.205.264.367.502.486.237.118.582.178 1.036.178.194 0 .361.016.502.048.14.033.22.21.242.534a.798.798 0 0 1-.13.454.436.436 0 0 1-.388.194 35.982 35.982 0 0 0-1.732-.081 81.857 81.857 0 0 0-3.318 0c-.518.01-1.09.038-1.716.081a.436.436 0 0 1-.389-.194.798.798 0 0 1-.13-.454c.022-.323.103-.501.244-.534.14-.032.307-.048.502-.048.453 0 .793-.06 1.02-.178.226-.12.388-.281.485-.486a1.82 1.82 0 0 0 .162-.712c.01-.27.016-.545.016-.826v-6.863c0-.54-.092-1.004-.275-1.393a2.807 2.807 0 0 0-.712-.955 2.845 2.845 0 0 0-1.004-.55 3.711 3.711 0 0 0-1.117-.178c-.561 0-1.058.08-1.49.243a4.097 4.097 0 0 0-1.1.599c-.302.237-.55.48-.745.728-.194.248-.334.47-.42.664v7.705c0 .28-.006.556-.017.826-.01.27.027.507.114.712a.986.986 0 0 0 .453.486c.216.118.55.178 1.003.178.216 0 .389.016.518.048.13.033.206.21.227.534a.798.798 0 0 1-.13.454.436.436 0 0 1-.388.194 36.136 36.136 0 0 0-1.683-.081 74.836 74.836 0 0 0-3.19 0c-.485.01-1.04.038-1.667.081a.436.436 0 0 1-.388-.194.798.798 0 0 1-.13-.454c.022-.323.097-.501.227-.534.13-.032.302-.048.518-.048.453 0 .788-.06 1.004-.178a.986.986 0 0 0 .453-.486 1.65 1.65 0 0 0 .113-.712 20.66 20.66 0 0 1-.016-.826v-6.863c0-.54-.092-1.004-.275-1.393a2.807 2.807 0 0 0-.713-.955 2.87 2.87 0 0 0-.987-.55 3.558 3.558 0 0 0-1.1-.178c-.562 0-1.058.08-1.49.243a4.38 4.38 0 0 0-1.117.599c-.313.237-.566.48-.76.728-.195.248-.335.47-.422.664v8.53c0 .27.049.508.146.713.097.205.264.367.502.486.237.118.583.178 1.036.178.194 0 .361.016.502.048.14.033.22.21.243.534a.798.798 0 0 1-.13.454.436.436 0 0 1-.388.194 35.982 35.982 0 0 0-1.733-.081 81.857 81.857 0 0 0-3.318 0c-.518.01-1.09.038-1.716.081a.436.436 0 0 1-.388-.194.798.798 0 0 1-.13-.454c.022-.323.103-.501.243-.534.14-.032.307-.048.502-.048.453 0 .793-.06 1.02-.178.226-.12.388-.281.485-.486a1.82 1.82 0 0 0 .162-.712c.01-.27.016-.545.016-.826v-8.24c0-.27-.048-.507-.145-.712a1.058 1.058 0 0 0-.486-.485c-.227-.119-.567-.178-1.02-.178-.194 0-.372-.027-.534-.081-.162-.054-.243-.243-.243-.567 0-.13.043-.248.13-.356a.694.694 0 0 1 .388-.227 19.248 19.248 0 0 0 1.813-.34 16.644 16.644 0 0 0 1.878-.567c.173-.064.345-.107.518-.129a.592.592 0 0 1 .437.098c.119.086.178.259.178.518v2.04zm29.785-1.555c-.626 0-1.198.194-1.716.583-.518.388-.777.95-.777 1.683 0 .26.054.491.162.697.108.205.227.372.356.501.13.13.249.238.356.324.108.086.162.14.162.162 0 .108-.124.27-.372.486-.248.215-.588.323-1.02.323-.69 0-1.214-.248-1.57-.744a2.768 2.768 0 0 1-.534-1.651c0-.605.15-1.117.453-1.538.302-.421.696-.761 1.182-1.02a5.84 5.84 0 0 1 1.65-.567 9.802 9.802 0 0 1 1.863-.178c.733 0 1.456.06 2.169.178.712.12 1.349.351 1.91.696.561.346 1.02.826 1.376 1.441.356.615.534 1.42.534 2.412v7.544c0 .172.027.366.08.582.055.216.147.421.276.615.13.195.302.362.518.502.216.14.486.21.81.21a.67.67 0 0 1 .356.082c.086.054.13.2.13.437a.447.447 0 0 1-.195.372c-.13.097-.292.173-.486.227a3.669 3.669 0 0 1-.599.113 4.992 4.992 0 0 1-.502.032c-.798 0-1.51-.232-2.136-.696-.626-.464-.993-1.106-1.101-1.926-.238.432-.572.81-1.004 1.133a7.304 7.304 0 0 1-1.408.826 7.455 7.455 0 0 1-1.554.501 7.397 7.397 0 0 1-1.473.162 4.063 4.063 0 0 1-2.833-1.133 4.058 4.058 0 0 1-.858-1.214 3.525 3.525 0 0 1-.324-1.505c0-.777.19-1.436.567-1.975.378-.54.858-.982 1.44-1.328a7.78 7.78 0 0 1 1.96-.809 17.47 17.47 0 0 1 2.136-.437 23.625 23.625 0 0 1 1.943-.194c.593-.033 1.063-.07 1.408-.114v-2.557c0-1.015-.248-1.808-.745-2.38-.496-.572-1.36-.858-2.59-.858zm3.335 6.767c-1.036.13-1.943.28-2.72.453-.777.173-1.419.388-1.926.647-.507.26-.89.583-1.15.972-.258.388-.388.852-.388 1.392 0 .69.194 1.284.583 1.78.388.497.896.745 1.522.745.54 0 1.057-.108 1.554-.324a4.357 4.357 0 0 0 1.31-.874c.379-.367.675-.81.891-1.327a4.25 4.25 0 0 0 .324-1.651V15.67zm9.162 4.84v-9.065c0-.27-.048-.508-.146-.713a1.058 1.058 0 0 0-.485-.485c-.227-.119-.567-.178-1.02-.178-.194 0-.372-.027-.534-.081-.162-.054-.243-.243-.243-.567 0-.13.043-.248.13-.356a.694.694 0 0 1 .388-.227 19.248 19.248 0 0 0 1.813-.34 16.644 16.644 0 0 0 1.878-.567c.172-.064.345-.107.518-.129a.592.592 0 0 1 .437.098c.119.086.178.259.178.518v2.007h.097c.734-.712 1.49-1.3 2.266-1.765.777-.464 1.49-.696 2.137-.696.389 0 .729.076 1.02.227.291.151.534.35.728.599.195.248.34.529.437.842.098.313.146.631.146.955 0 .28-.043.555-.13.825-.086.27-.215.518-.388.745a2 2 0 0 1-.647.55c-.26.14-.562.21-.907.21s-.62-.07-.826-.21c-.205-.14-.318-.243-.34-.307 0-.043.103-.173.308-.389.205-.216.308-.485.308-.81 0-.388-.103-.7-.308-.938-.205-.237-.48-.356-.825-.356-.367 0-.837.183-1.409.55a9.795 9.795 0 0 0-1.635 1.328v8.725c0 .27.049.507.146.712.097.205.264.367.502.486.237.118.583.178 1.036.178.194 0 .361.016.502.048.14.033.22.21.242.534a.798.798 0 0 1-.13.454.436.436 0 0 1-.388.194 35.982 35.982 0 0 0-1.732-.081 81.857 81.857 0 0 0-3.318 0c-.518.01-1.09.038-1.716.081a.436.436 0 0 1-.389-.194.798.798 0 0 1-.129-.454c.043-.323.13-.501.259-.534.13-.032.302-.048.518-.048.453 0 .793-.06 1.02-.178.226-.12.388-.281.485-.486.098-.205.146-.442.146-.712zm19.846 2.833c-.28.69-.62 1.424-1.02 2.201-.399.777-.863 1.506-1.392 2.185a7.556 7.556 0 0 1-1.797 1.684 3.962 3.962 0 0 1-2.234.664 3.84 3.84 0 0 1-2.492-.907 3.355 3.355 0 0 1-.777-.971 2.456 2.456 0 0 1-.292-1.166c.022-.582.151-1.025.389-1.327.237-.302.485-.523.744-.664.26-.14.491-.216.696-.226.205-.011.286-.017.243-.017.41 0 .723.081.94.243.215.162.323.297.323.405 0 .043-.081.146-.243.308-.162.161-.254.447-.275.857-.022.389.097.767.356 1.134.259.367.658.55 1.198.55a2.17 2.17 0 0 0 1.263-.405c.388-.27.75-.604 1.084-1.003.335-.4.637-.847.907-1.344.27-.496.512-.971.728-1.424.151-.475.14-.972-.032-1.49a57.488 57.488 0 0 1-1.15-2.752c-.377-.97-.744-1.937-1.1-2.897-.357-.96-.713-1.883-1.069-2.768a46.62 46.62 0 0 0-1.02-2.364c-.172-.388-.34-.723-.501-1.003a3.336 3.336 0 0 0-.518-.696 1.954 1.954 0 0 0-.616-.421 3.17 3.17 0 0 0-.825-.21c-.28-.044-.47-.082-.567-.114-.097-.032-.156-.2-.178-.502-.021-.367.081-.566.308-.599.226-.032.502-.06.825-.08 1.317-.065 2.353.129 3.108.582.756.453 1.382 1.22 1.878 2.299.216.518.459 1.122.729 1.813a546 546 0 0 1 .841 2.169c.292.755.588 1.505.89 2.25.303.745.605 1.42.907 2.023h.097l3.173-8.482c.216-.626.227-1.014.032-1.165-.194-.151-.615-.227-1.262-.227-.194 0-.356-.016-.486-.049-.13-.032-.205-.21-.226-.534 0-.13.032-.27.097-.42.064-.152.183-.227.356-.227.626.043 1.165.07 1.619.08.453.011.96.017 1.521.017h.712c.195 0 .389-.006.583-.016l.6-.033c.204-.01.469-.027.792-.048.173 0 .297.075.373.226a.949.949 0 0 1 .113.421c-.022.324-.103.502-.243.534-.14.033-.297.049-.47.049-.712 0-1.278.13-1.699.388-.42.26-.782.767-1.085 1.522l-2.395 5.892c-.302.756-.6 1.49-.89 2.202-.292.712-.551 1.349-.778 1.91-.226.561-.415 1.02-.566 1.376-.151.356-.227.545-.227.567z"/>
</svg>
